<?xml version="1.0" encoding="UTF-8"?>
<svg width="512px" height="512px" viewBox="0 0 512 512" version="1.1" xmlns="http://www.w3.org/2000/svg" xmlns:xlink="http://www.w3.org/1999/xlink">
    <!-- Generator: Sketch 41 (35326) - http://www.bohemiancoding.com/sketch -->
    <title>Sketch Logo</title>
    <desc>Created with Sketch.</desc>
    <defs>
        <filter x="-50%" y="-50%" width="200%" height="200%" filterUnits="objectBoundingBox" id="filter-1">
            <feGaussianBlur stdDeviation="16" in="SourceGraphic"></feGaussianBlur>
        </filter>
        <filter x="-50%" y="-50%" width="200%" height="200%" filterUnits="objectBoundingBox" id="filter-2">
            <feGaussianBlur stdDeviation="4" in="SourceGraphic"></feGaussianBlur>
        </filter>
        <radialGradient cx="50%" cy="28.2951328%" fx="50%" fy="28.2951328%" r="115.533809%" id="radialGradient-3">
            <stop stop-color="#FD7C00" offset="0%"></stop>
            <stop stop-color="#F35300" offset="100%"></stop>
        </radialGradient>
        <radialGradient cx="50%" cy="2.49758199%" fx="50%" fy="2.49758199%" r="82.8256462%" id="radialGradient-4">
            <stop stop-color="#FDCE21" offset="0%"></stop>
            <stop stop-color="#FDA500" offset="100%"></stop>
        </radialGradient>
        <linearGradient x1="79.5918367%" y1="81.25%" x2="30.8540604%" y2="50%" id="linearGradient-5">
            <stop stop-color="#FDD12B" offset="0%"></stop>
            <stop stop-color="#FDC003" offset="100%"></stop>
        </linearGradient>
        <radialGradient cx="50%" cy="0%" fx="50%" fy="0%" r="100%" id="radialGradient-6">
            <stop stop-color="#FEF3CB" offset="0%"></stop>
            <stop stop-color="#FEDD67" offset="100%"></stop>
        </radialGradient>
        <linearGradient x1="100%" y1="50%" x2="0%" y2="50%" id="linearGradient-7">
            <stop stop-color="#FC8900" offset="0%"></stop>
            <stop stop-color="#FCAA00" offset="100%"></stop>
        </linearGradient>
        <filter x="-50%" y="-50%" width="200%" height="200%" filterUnits="objectBoundingBox" id="filter-8">
            <feGaussianBlur stdDeviation="50" in="SourceGraphic"></feGaussianBlur>
        </filter>
    </defs>
    <g id="Page-1" stroke="none" stroke-width="1" fill="none" fill-rule="evenodd">
        <g id="Sketch-Logo">
            <g id="Shadow" transform="translate(204.000000, 468.000000)" fill="#000000">
                <ellipse opacity="0.599999964" filter="url(#filter-1)" cx="52" cy="8" rx="52" ry="8"></ellipse>
                <ellipse opacity="0.300000012" filter="url(#filter-2)" cx="52" cy="8" rx="16" ry="4"></ellipse>
            </g>
            <g id="Bottom-Back" transform="translate(9.000000, 188.000000)" fill="url(#radialGradient-3)">
                <polygon id="Polygon" transform="translate(247.000000, 143.500000) rotate(-180.000000) translate(-247.000000, -143.500000) " points="247 -2.27373675e-13 494 287 -5.68434189e-14 287"></polygon>
            </g>
            <g id="Bottom-Mid" transform="translate(109.000000, 188.000000)">
                <polygon id="Polygon" fill="#FDCA0D" transform="translate(147.000000, 143.500000) rotate(-180.000000) translate(-147.000000, -143.500000) " points="147 0 294 287 -5.68434189e-14 287"></polygon>
                <polygon id="Polygon" fill="url(#radialGradient-4)" transform="translate(147.000000, 143.500000) rotate(-180.000000) translate(-147.000000, -143.500000) " points="147 0 289 287 5 287"></polygon>
            </g>
            <g id="Top-Left" transform="translate(109.000000, 28.000000)" fill="url(#linearGradient-5)">
                <polygon id="Polygon" transform="translate(73.500000, 80.000000) rotate(-180.000000) translate(-73.500000, -80.000000) " points="140 145 147 3.0127012e-12 2.27373675e-13 160"></polygon>
            </g>
            <g id="Top-Right" transform="translate(256.000000, 28.000000)" fill="url(#linearGradient-5)">
                <polygon id="Polygon" transform="translate(73.500000, 80.000000) scale(-1, 1) rotate(-180.000000) translate(-73.500000, -80.000000) " points="140 145 147 0 5.68434189e-14 160"></polygon>
            </g>
            <g id="Top-Mid" transform="translate(109.000000, 28.000000)">
                <polygon id="Polygon" fill="#FEFBED" transform="translate(147.000000, 80.000000) rotate(-180.000000) translate(-147.000000, -80.000000) " points="147 160 294 2.65298894e-12 2.84217094e-13 -1.13686838e-13"></polygon>
                <polygon id="Polygon" fill="url(#radialGradient-6)" transform="translate(147.000000, 78.000000) rotate(-180.000000) translate(-147.000000, -78.000000) " points="147 156 286 3.75166564e-12 8 -5.68434189e-14"></polygon>
            </g>
            <g id="Top-Side-Left" transform="translate(9.000000, 43.000000)">
                <polygon id="Polygon" fill="#FEE693" transform="translate(53.500000, 72.500000) rotate(-180.000000) translate(-53.500000, -72.500000) " points="-1.98951966e-13 145 55 72 107 2.61479727e-12 2 -5.68434189e-14"></polygon>
                <polygon id="Polygon" fill="url(#linearGradient-7)" transform="translate(53.500000, 72.500000) rotate(-180.000000) translate(-53.500000, -72.500000) " points="-1.98951966e-13 145 107 1.70530257e-13 7 4"></polygon>
            </g>
            <g id="Top-Side-Right" transform="translate(449.500000, 115.500000) scale(-1, 1) translate(-449.500000, -115.500000) translate(396.000000, 43.000000)">
                <polygon id="Polygon" fill="#FEE693" transform="translate(53.500000, 72.500000) rotate(-180.000000) translate(-53.500000, -72.500000) " points="-5.68434189e-14 145 55 72 107 2.50111043e-12 2 -1.70530257e-13"></polygon>
                <polygon id="Polygon" fill="url(#linearGradient-7)" transform="translate(53.500000, 72.500000) rotate(-180.000000) translate(-53.500000, -72.500000) " points="-2.84217094e-13 145 107 1.70530257e-13 7 4"></polygon>
            </g>
            <ellipse id="Highlight" fill="#FFFFFF" opacity="0.100000001" filter="url(#filter-8)" cx="256" cy="188" rx="161" ry="51"></ellipse>
        </g>
    </g>
</svg>